<?xml version="1.0" encoding="UTF-8"?>
<!DOCTYPE svg PUBLIC "-//W3C//DTD SVG 1.1//EN" "http://www.w3.org/Graphics/SVG/1.1/DTD/svg11.dtd">
<svg version="1.2" width="210mm" height="297mm" viewBox="0 0 21000 29700" preserveAspectRatio="xMidYMid" fill-rule="evenodd" stroke-width="28.222" stroke-linejoin="round" xmlns="http://www.w3.org/2000/svg" xmlns:ooo="http://xml.openoffice.org/svg/export" xmlns:xlink="http://www.w3.org/1999/xlink" xmlns:presentation="http://sun.com/xmlns/staroffice/presentation" xmlns:smil="http://www.w3.org/2001/SMIL20/" xmlns:anim="urn:oasis:names:tc:opendocument:xmlns:animation:1.0" xml:space="preserve">
 <defs class="ClipPathGroup">
  <clipPath id="presentation_clip_path" clipPathUnits="userSpaceOnUse">
   <rect x="0" y="0" width="21000" height="29700"/>
  </clipPath>
  <clipPath id="presentation_clip_path_shrink" clipPathUnits="userSpaceOnUse">
   <rect x="21" y="29" width="20958" height="29641"/>
  </clipPath>
 </defs>
 <defs class="TextShapeIndex">
  <g ooo:slide="id1" ooo:id-list="id3 id4 id5 id6 id7"/>
 </defs>
 <defs class="EmbeddedBulletChars">
  <g id="bullet-char-template-57356" transform="scale(0.00048828125,-0.00048828125)">
   <path d="M 580,1141 L 1163,571 580,0 -4,571 580,1141 Z"/>
  </g>
  <g id="bullet-char-template-57354" transform="scale(0.00048828125,-0.00048828125)">
   <path d="M 8,1128 L 1137,1128 1137,0 8,0 8,1128 Z"/>
  </g>
  <g id="bullet-char-template-10146" transform="scale(0.00048828125,-0.00048828125)">
   <path d="M 174,0 L 602,739 174,1481 1456,739 174,0 Z M 1358,739 L 309,1346 659,739 1358,739 Z"/>
  </g>
  <g id="bullet-char-template-10132" transform="scale(0.00048828125,-0.00048828125)">
   <path d="M 2015,739 L 1276,0 717,0 1260,543 174,543 174,936 1260,936 717,1481 1274,1481 2015,739 Z"/>
  </g>
  <g id="bullet-char-template-10007" transform="scale(0.00048828125,-0.00048828125)">
   <path d="M 0,-2 C -7,14 -16,27 -25,37 L 356,567 C 262,823 215,952 215,954 215,979 228,992 255,992 264,992 276,990 289,987 310,991 331,999 354,1012 L 381,999 492,748 772,1049 836,1024 860,1049 C 881,1039 901,1025 922,1006 886,937 835,863 770,784 769,783 710,716 594,584 L 774,223 C 774,196 753,168 711,139 L 727,119 C 717,90 699,76 672,76 641,76 570,178 457,381 L 164,-76 C 142,-110 111,-127 72,-127 30,-127 9,-110 8,-76 1,-67 -2,-52 -2,-32 -2,-23 -1,-13 0,-2 Z"/>
  </g>
  <g id="bullet-char-template-10004" transform="scale(0.00048828125,-0.00048828125)">
   <path d="M 285,-33 C 182,-33 111,30 74,156 52,228 41,333 41,471 41,549 55,616 82,672 116,743 169,778 240,778 293,778 328,747 346,684 L 369,508 C 377,444 397,411 428,410 L 1163,1116 C 1174,1127 1196,1133 1229,1133 1271,1133 1292,1118 1292,1087 L 1292,965 C 1292,929 1282,901 1262,881 L 442,47 C 390,-6 338,-33 285,-33 Z"/>
  </g>
  <g id="bullet-char-template-9679" transform="scale(0.00048828125,-0.00048828125)">
   <path d="M 813,0 C 632,0 489,54 383,161 276,268 223,411 223,592 223,773 276,916 383,1023 489,1130 632,1184 813,1184 992,1184 1136,1130 1245,1023 1353,916 1407,772 1407,592 1407,412 1353,268 1245,161 1136,54 992,0 813,0 Z"/>
  </g>
  <g id="bullet-char-template-8226" transform="scale(0.00048828125,-0.00048828125)">
   <path d="M 346,457 C 273,457 209,483 155,535 101,586 74,649 74,723 74,796 101,859 155,911 209,963 273,989 346,989 419,989 480,963 531,910 582,859 608,796 608,723 608,648 583,586 532,535 482,483 420,457 346,457 Z"/>
  </g>
  <g id="bullet-char-template-8211" transform="scale(0.00048828125,-0.00048828125)">
   <path d="M -4,459 L 1135,459 1135,606 -4,606 -4,459 Z"/>
  </g>
  <g id="bullet-char-template-61548" transform="scale(0.00048828125,-0.00048828125)">
   <path d="M 173,740 C 173,903 231,1043 346,1159 462,1274 601,1332 765,1332 928,1332 1067,1274 1183,1159 1299,1043 1357,903 1357,740 1357,577 1299,437 1183,322 1067,206 928,148 765,148 601,148 462,206 346,322 231,437 173,577 173,740 Z"/>
  </g>
 </defs>
 <g>
  <g id="id2" class="Master_Slide">
   <g id="bg-id2" class="Background"/>
   <g id="bo-id2" class="BackgroundObjects"/>
  </g>
 </g>
 <g class="SlideGroup">
  <g>
   <g id="container-id1">
    <g id="id1" class="Slide" clip-path="url(#presentation_clip_path)">
     <g class="Page">
      <g class="com.sun.star.drawing.CustomShape">
       <g id="id3">
        <rect class="BoundingBox" stroke="none" fill="none" x="363" y="9254" width="19638" height="8575"/>
        <path fill="rgb(255,255,255)" stroke="none" d="M 10182,17827 L 364,17827 364,9255 19999,9255 19999,17827 10182,17827 Z"/>
        <path fill="none" stroke="rgb(255,255,255)" d="M 10182,17827 L 364,17827 364,9255 19999,9255 19999,17827 10182,17827 Z"/>
       </g>
      </g>
      <g class="com.sun.star.drawing.CustomShape">
       <g id="id4">
        <rect class="BoundingBox" stroke="none" fill="none" x="1316" y="10534" width="5930" height="6025"/>
        <path fill="rgb(255,255,0)" stroke="none" d="M 7244,13546 C 7244,14075 7107,14594 6847,15052 6587,15509 6213,15889 5762,16154 5312,16418 4801,16557 4281,16557 3760,16557 3249,16418 2799,16154 2348,15889 1974,15509 1714,15052 1454,14594 1317,14075 1317,13546 1317,13017 1454,12498 1714,12041 1974,11583 2348,11203 2799,10938 3249,10674 3760,10535 4280,10535 4801,10535 5312,10674 5762,10938 6213,11203 6587,11583 6847,12040 7107,12498 7244,13017 7244,13546 L 7244,13546 Z"/>
        <path fill="none" stroke="rgb(0,0,0)" d="M 7244,13546 C 7244,14075 7107,14594 6847,15052 6587,15509 6213,15889 5762,16154 5312,16418 4801,16557 4281,16557 3760,16557 3249,16418 2799,16154 2348,15889 1974,15509 1714,15052 1454,14594 1317,14075 1317,13546 1317,13017 1454,12498 1714,12041 1974,11583 2348,11203 2799,10938 3249,10674 3760,10535 4280,10535 4801,10535 5312,10674 5762,10938 6213,11203 6587,11583 6847,12040 7107,12498 7244,13017 7244,13546 L 7244,13546 Z"/>
        <path fill="rgb(204,204,0)" stroke="none" d="M 3596,12630 C 3596,12721 3583,12811 3559,12890 3535,12969 3500,13035 3459,13080 3417,13126 3370,13150 3321,13150 3273,13150 3226,13126 3184,13080 3143,13035 3108,12969 3084,12890 3060,12811 3047,12721 3047,12630 3047,12539 3060,12449 3084,12370 3108,12291 3143,12225 3184,12180 3226,12134 3273,12110 3321,12110 3370,12110 3417,12134 3459,12180 3500,12225 3535,12291 3559,12370 3583,12449 3596,12539 3596,12630 L 3596,12630 Z"/>
        <path fill="none" stroke="rgb(0,0,0)" d="M 3596,12630 C 3596,12721 3583,12811 3559,12890 3535,12969 3500,13035 3459,13080 3417,13126 3370,13150 3321,13150 3273,13150 3226,13126 3184,13080 3143,13035 3108,12969 3084,12890 3060,12811 3047,12721 3047,12630 3047,12539 3060,12449 3084,12370 3108,12291 3143,12225 3184,12180 3226,12134 3273,12110 3321,12110 3370,12110 3417,12134 3459,12180 3500,12225 3535,12291 3559,12370 3583,12449 3596,12539 3596,12630 Z"/>
        <path fill="rgb(204,204,0)" stroke="none" d="M 5514,12630 C 5514,12721 5501,12811 5477,12890 5453,12969 5418,13035 5377,13080 5335,13126 5288,13150 5240,13150 5191,13150 5144,13126 5102,13080 5061,13035 5026,12969 5002,12890 4978,12811 4965,12721 4965,12630 4965,12539 4978,12449 5002,12370 5026,12291 5061,12225 5102,12180 5144,12134 5191,12110 5240,12110 5288,12110 5335,12134 5377,12180 5418,12225 5453,12291 5477,12370 5501,12449 5514,12539 5514,12630 L 5514,12630 Z"/>
        <path fill="none" stroke="rgb(0,0,0)" d="M 5514,12630 C 5514,12721 5501,12811 5477,12890 5453,12969 5418,13035 5377,13080 5335,13126 5288,13150 5240,13150 5191,13150 5144,13126 5102,13080 5061,13035 5026,12969 5002,12890 4978,12811 4965,12721 4965,12630 4965,12539 4978,12449 5002,12370 5026,12291 5061,12225 5102,12180 5144,12134 5191,12110 5240,12110 5288,12110 5335,12134 5377,12180 5418,12225 5453,12291 5477,12370 5501,12449 5514,12539 5514,12630 Z"/>
        <path fill="none" stroke="rgb(0,0,0)" d="M 2653,14580 C 3698,15698 4862,15698 5907,14580"/>
       </g>
      </g>
      <g class="com.sun.star.drawing.CustomShape">
       <g id="id5">
        <rect class="BoundingBox" stroke="none" fill="none" x="7243" y="10534" width="5930" height="6025"/>
        <path fill="rgb(255,255,0)" stroke="none" d="M 13171,13546 C 13171,14075 13034,14594 12774,15052 12514,15509 12140,15889 11689,16154 11239,16418 10728,16557 10207,16557 9687,16557 9176,16418 8726,16154 8275,15889 7901,15509 7641,15052 7381,14594 7244,14075 7244,13546 7244,13017 7381,12498 7641,12041 7901,11583 8275,11203 8726,10938 9176,10674 9687,10535 10207,10535 10728,10535 11239,10674 11689,10938 12140,11203 12514,11583 12774,12040 13034,12498 13171,13017 13171,13546 L 13171,13546 Z"/>
        <path fill="none" stroke="rgb(0,0,0)" d="M 13171,13546 C 13171,14075 13034,14594 12774,15052 12514,15509 12140,15889 11689,16154 11239,16418 10728,16557 10207,16557 9687,16557 9176,16418 8726,16154 8275,15889 7901,15509 7641,15052 7381,14594 7244,14075 7244,13546 7244,13017 7381,12498 7641,12041 7901,11583 8275,11203 8726,10938 9176,10674 9687,10535 10207,10535 10728,10535 11239,10674 11689,10938 12140,11203 12514,11583 12774,12040 13034,12498 13171,13017 13171,13546 L 13171,13546 Z"/>
        <path fill="rgb(204,204,0)" stroke="none" d="M 9523,12630 C 9523,12721 9510,12811 9486,12890 9462,12969 9427,13035 9386,13080 9344,13126 9297,13150 9248,13150 9200,13150 9153,13126 9111,13080 9070,13035 9035,12969 9011,12890 8987,12811 8974,12721 8974,12630 8974,12539 8987,12449 9011,12370 9035,12291 9070,12225 9111,12180 9153,12134 9200,12110 9248,12110 9297,12110 9344,12134 9386,12180 9427,12225 9462,12291 9486,12370 9510,12449 9523,12539 9523,12630 L 9523,12630 Z"/>
        <path fill="none" stroke="rgb(0,0,0)" d="M 9523,12630 C 9523,12721 9510,12811 9486,12890 9462,12969 9427,13035 9386,13080 9344,13126 9297,13150 9248,13150 9200,13150 9153,13126 9111,13080 9070,13035 9035,12969 9011,12890 8987,12811 8974,12721 8974,12630 8974,12539 8987,12449 9011,12370 9035,12291 9070,12225 9111,12180 9153,12134 9200,12110 9248,12110 9297,12110 9344,12134 9386,12180 9427,12225 9462,12291 9486,12370 9510,12449 9523,12539 9523,12630 Z"/>
        <path fill="rgb(204,204,0)" stroke="none" d="M 11441,12630 C 11441,12721 11428,12811 11404,12890 11380,12969 11345,13035 11304,13080 11262,13126 11215,13150 11167,13150 11118,13150 11071,13126 11029,13080 10988,13035 10953,12969 10929,12890 10905,12811 10892,12721 10892,12630 10892,12539 10905,12449 10929,12370 10953,12291 10988,12225 11029,12180 11071,12134 11118,12110 11167,12110 11215,12110 11262,12134 11304,12180 11345,12225 11380,12291 11404,12370 11428,12449 11441,12539 11441,12630 L 11441,12630 Z"/>
        <path fill="none" stroke="rgb(0,0,0)" d="M 11441,12630 C 11441,12721 11428,12811 11404,12890 11380,12969 11345,13035 11304,13080 11262,13126 11215,13150 11167,13150 11118,13150 11071,13126 11029,13080 10988,13035 10953,12969 10929,12890 10905,12811 10892,12721 10892,12630 10892,12539 10905,12449 10929,12370 10953,12291 10988,12225 11029,12180 11071,12134 11118,12110 11167,12110 11215,12110 11262,12134 11304,12180 11345,12225 11380,12291 11404,12370 11428,12449 11441,12539 11441,12630 Z"/>
        <path fill="none" stroke="rgb(0,0,0)" d="M 8580,14580 C 9625,15698 10789,15698 11834,14580"/>
       </g>
      </g>
      <g class="com.sun.star.drawing.CustomShape">
       <g id="id6">
        <rect class="BoundingBox" stroke="none" fill="none" x="7222" y="10556" width="5971" height="5984"/>
        <path fill="rgb(255,255,0)" stroke="none" d="M 12444,11603 C 12791,12002 13028,12484 13132,13000 13236,13516 13203,14049 13036,14544 12870,15039 12575,15479 12183,15820 11790,16161 11313,16392 10800,16488 10286,16584 9755,16542 9258,16368 8762,16193 8318,15891 7971,15492 7624,15093 7387,14611 7283,14095 7179,13579 7212,13047 7378,12552 7545,12057 7839,11617 8232,11275 8625,10934 9102,10704 9615,10608 10128,10511 10660,10553 11157,10728 11653,10903 12097,11205 12444,11603 L 12444,11603 Z"/>
        <path fill="none" stroke="rgb(0,0,0)" d="M 12444,11603 C 12791,12002 13028,12484 13132,13000 13236,13516 13203,14049 13036,14544 12870,15039 12575,15479 12183,15820 11790,16161 11313,16392 10800,16488 10286,16584 9755,16542 9258,16368 8762,16193 8318,15891 7971,15492 7624,15093 7387,14611 7283,14095 7179,13579 7212,13047 7378,12552 7545,12057 7839,11617 8232,11275 8625,10934 9102,10704 9615,10608 10128,10511 10660,10553 11157,10728 11653,10903 12097,11205 12444,11603 L 12444,11603 Z"/>
        <path fill="rgb(204,204,0)" stroke="none" d="M 9090,13306 C 9150,13375 9199,13450 9233,13526 9266,13601 9283,13674 9282,13735 9280,13797 9260,13846 9224,13878 9188,13910 9136,13923 9075,13916 9013,13908 8944,13882 8874,13838 8804,13794 8736,13735 8676,13666 8616,13597 8567,13521 8533,13445 8499,13370 8482,13298 8484,13236 8485,13174 8505,13125 8542,13093 8578,13062 8629,13049 8691,13056 8752,13063 8821,13090 8892,13134 8962,13177 9030,13237 9090,13306 L 9090,13306 Z"/>
        <path fill="none" stroke="rgb(0,0,0)" d="M 9090,13306 C 9150,13375 9199,13450 9233,13526 9266,13601 9283,13674 9282,13735 9280,13797 9260,13846 9224,13878 9188,13910 9136,13923 9075,13916 9013,13908 8944,13882 8874,13838 8804,13794 8736,13735 8676,13666 8616,13597 8567,13521 8533,13445 8499,13370 8482,13298 8484,13236 8485,13174 8505,13125 8542,13093 8578,13062 8629,13049 8691,13056 8752,13063 8821,13090 8892,13134 8962,13177 9030,13237 9090,13306 Z"/>
        <path fill="rgb(204,204,0)" stroke="none" d="M 10537,12047 C 10597,12116 10647,12192 10680,12268 10714,12343 10731,12415 10729,12477 10728,12539 10708,12588 10671,12620 10635,12651 10584,12664 10522,12657 10461,12650 10392,12623 10322,12579 10251,12536 10183,12476 10123,12407 10063,12338 10014,12262 9980,12187 9947,12112 9930,12039 9931,11977 9933,11916 9953,11866 9989,11835 10026,11803 10077,11790 10138,11797 10200,11805 10269,11831 10339,11875 10409,11919 10478,11978 10537,12047 L 10537,12047 Z"/>
        <path fill="none" stroke="rgb(0,0,0)" d="M 10537,12047 C 10597,12116 10647,12192 10680,12268 10714,12343 10731,12415 10729,12477 10728,12539 10708,12588 10671,12620 10635,12651 10584,12664 10522,12657 10461,12650 10392,12623 10322,12579 10251,12536 10183,12476 10123,12407 10063,12338 10014,12262 9980,12187 9947,12112 9930,12039 9931,11977 9933,11916 9953,11866 9989,11835 10026,11803 10077,11790 10138,11797 10200,11805 10269,11831 10339,11875 10409,11919 10478,11978 10537,12047 Z"/>
        <path fill="none" stroke="rgb(0,0,0)" d="M 9657,15396 C 11180,15554 12058,14790 12113,13261"/>
       </g>
      </g>
      <g class="com.sun.star.drawing.CustomShape">
       <g id="id7">
        <rect class="BoundingBox" stroke="none" fill="none" x="13122" y="10571" width="6025" height="5930"/>
        <path fill="rgb(255,255,0)" stroke="none" d="M 16134,10572 C 16663,10572 17182,10709 17640,10969 18097,11229 18477,11603 18742,12054 19006,12504 19145,13015 19145,13536 19145,14056 19006,14567 18742,15017 18477,15468 18097,15842 17640,16102 17182,16362 16663,16499 16134,16499 15605,16499 15086,16362 14629,16102 14171,15842 13791,15468 13526,15017 13262,14567 13123,14056 13123,13536 13123,13015 13262,12504 13526,12054 13791,11603 14171,11229 14628,10969 15086,10709 15605,10572 16134,10572 L 16134,10572 Z"/>
        <path fill="none" stroke="rgb(0,0,0)" d="M 16134,10572 C 16663,10572 17182,10709 17640,10969 18097,11229 18477,11603 18742,12054 19006,12504 19145,13015 19145,13536 19145,14056 19006,14567 18742,15017 18477,15468 18097,15842 17640,16102 17182,16362 16663,16499 16134,16499 15605,16499 15086,16362 14629,16102 14171,15842 13791,15468 13526,15017 13262,14567 13123,14056 13123,13536 13123,13015 13262,12504 13526,12054 13791,11603 14171,11229 14628,10969 15086,10709 15605,10572 16134,10572 L 16134,10572 Z"/>
        <path fill="rgb(204,204,0)" stroke="none" d="M 15218,14220 C 15309,14220 15399,14233 15478,14257 15557,14281 15623,14316 15668,14357 15714,14399 15738,14446 15738,14495 15738,14543 15714,14590 15668,14632 15623,14673 15557,14708 15478,14732 15399,14756 15309,14769 15218,14769 15127,14769 15037,14756 14958,14732 14879,14708 14813,14673 14768,14632 14722,14590 14698,14543 14698,14495 14698,14446 14722,14399 14768,14357 14813,14316 14879,14281 14958,14257 15037,14233 15127,14220 15218,14220 L 15218,14220 Z"/>
        <path fill="none" stroke="rgb(0,0,0)" d="M 15218,14220 C 15309,14220 15399,14233 15478,14257 15557,14281 15623,14316 15668,14357 15714,14399 15738,14446 15738,14495 15738,14543 15714,14590 15668,14632 15623,14673 15557,14708 15478,14732 15399,14756 15309,14769 15218,14769 15127,14769 15037,14756 14958,14732 14879,14708 14813,14673 14768,14632 14722,14590 14698,14543 14698,14495 14698,14446 14722,14399 14768,14357 14813,14316 14879,14281 14958,14257 15037,14233 15127,14220 15218,14220 Z"/>
        <path fill="rgb(204,204,0)" stroke="none" d="M 15218,12302 C 15309,12302 15399,12315 15478,12339 15557,12363 15623,12398 15668,12439 15714,12481 15738,12528 15738,12576 15738,12625 15714,12672 15668,12714 15623,12755 15557,12790 15478,12814 15399,12838 15309,12851 15218,12851 15127,12851 15037,12838 14958,12814 14879,12790 14813,12755 14768,12714 14722,12672 14698,12625 14698,12576 14698,12528 14722,12481 14768,12439 14813,12398 14879,12363 14958,12339 15037,12315 15127,12302 15218,12302 L 15218,12302 Z"/>
        <path fill="none" stroke="rgb(0,0,0)" d="M 15218,12302 C 15309,12302 15399,12315 15478,12339 15557,12363 15623,12398 15668,12439 15714,12481 15738,12528 15738,12576 15738,12625 15714,12672 15668,12714 15623,12755 15557,12790 15478,12814 15399,12838 15309,12851 15218,12851 15127,12851 15037,12838 14958,12814 14879,12790 14813,12755 14768,12714 14722,12672 14698,12625 14698,12576 14698,12528 14722,12481 14768,12439 14813,12398 14879,12363 14958,12339 15037,12315 15127,12302 15218,12302 Z"/>
        <path fill="none" stroke="rgb(0,0,0)" d="M 17168,15163 C 18286,14118 18286,12954 17168,11909"/>
       </g>
      </g>
     </g>
    </g>
   </g>
  </g>
 </g>
</svg>